<svg width="20" height="20" viewBox="0 0 20 20" fill="none" xmlns="http://www.w3.org/2000/svg">
<path d="M15.0484 7.11369L14.215 6.60236C13.3795 6.08966 12.9617 5.83331 12.5 5.83331C12.0384 5.83331 11.6206 6.08966 10.7851 6.60236L9.95172 7.11369C9.16127 7.59871 8.76604 7.84122 8.54971 8.23197C8.33337 8.62271 8.33337 9.09406 8.33337 10.0368V14.9244C8.33337 16.5314 8.33337 17.3349 8.82153 17.8341C9.30968 18.3333 10.0954 18.3333 11.6667 18.3333H13.3334C14.9047 18.3333 15.6904 18.3333 16.1786 17.8341C16.6667 17.3349 16.6667 16.5314 16.6667 14.9244V10.0368C16.6667 9.09406 16.6667 8.62271 16.4504 8.23197C16.234 7.84122 15.8388 7.59871 15.0484 7.11369Z" stroke="white" stroke-width="1.2" stroke-linecap="round" stroke-linejoin="round"/>
<path d="M11.6667 5.92341C11.1343 5.41258 10.816 5.14405 10.4145 5.04315C9.94785 4.92585 9.45761 5.0574 8.47713 5.3205L7.49927 5.58289C6.57173 5.83178 6.10795 5.95623 5.78576 6.26358C5.46357 6.57094 5.33872 7.00801 5.08903 7.88214L3.79443 12.4143C3.36879 13.9043 3.15598 14.6494 3.51723 15.2363C3.82784 15.741 5.06962 16.3616 6.25004 16.6667" stroke="white" stroke-width="1.2" stroke-linecap="round" stroke-linejoin="round"/>
<path d="M12.079 8.33335C12.78 7.86717 13.4024 7.11911 13.789 6.18879C14.5874 4.26804 14.0787 2.29772 12.653 1.78797C11.2273 1.27821 9.42433 2.42206 8.626 4.34281C8.49254 4.66391 8.3956 4.9864 8.33337 5.30322" stroke="white" stroke-width="1.2" stroke-linecap="round"/>
</svg>
